<?xml version="1.0" encoding="UTF-8"?>
<svg id="Layer_1" data-name="Layer 1" xmlns="http://www.w3.org/2000/svg" xmlns:xlink="http://www.w3.org/1999/xlink" viewBox="0 0 3205.46 695.26">
  <defs>
    <style>
      .cls-1 {
        fill: url(#linear-gradient-2);
      }

      .cls-2 {
        fill: url(#linear-gradient-4);
      }

      .cls-3 {
        fill: url(#linear-gradient-3);
      }

      .cls-4 {
        fill: url(#linear-gradient-5);
      }

      .cls-5 {
        fill: #53be8d;
      }

      .cls-6 {
        fill: url(#linear-gradient);
      }
    </style>
    <linearGradient id="linear-gradient" x1="144.18" y1="299.15" x2="145.32" y2="299.15" gradientUnits="userSpaceOnUse">
      <stop offset="0" stop-color="#235d54"/>
      <stop offset=".91" stop-color="#249083"/>
    </linearGradient>
    <linearGradient id="linear-gradient-2" x1="66.5" y1="183.11" x2="346.56" y2="183.11" gradientUnits="userSpaceOnUse">
      <stop offset="0" stop-color="#6bcc8d"/>
      <stop offset=".43" stop-color="#25a48c"/>
      <stop offset="1" stop-color="#235d54"/>
    </linearGradient>
    <linearGradient id="linear-gradient-3" x1="66.5" y1="435.77" x2="346.56" y2="435.77" xlink:href="#linear-gradient-2"/>
    <linearGradient id="linear-gradient-4" x1="24.2" y1="337.06" x2="186.12" y2="337.06" xlink:href="#linear-gradient-2"/>
    <linearGradient id="linear-gradient-5" x1="324.39" y1="109.6" x2="194.95" y2="513.15" gradientUnits="userSpaceOnUse">
      <stop offset="0" stop-color="#91e8a2"/>
      <stop offset=".41" stop-color="#9cf1dd"/>
      <stop offset="1" stop-color="#6ee6de"/>
    </linearGradient>
  </defs>
  <g>
    <path class="cls-6" d="M145.32,301.64c-.34-1.67-.72-3.33-1.14-4.98.34,1.68.71,3.34,1.14,4.98Z"/>
    <g>
      <path class="cls-5" d="M290.22,695.26c-.87,0-1.74-.25-2.52-.77-2.06-1.39-2.59-4.19-1.2-6.24l174.38-257.56c72.5-107.08,58.75-251.16-32.69-342.59C377.18,37.08,309.35,8.99,237.19,8.99c-22.27,0-44.6,2.78-66.38,8.27-2.4.61-4.85-.85-5.46-3.26-.61-2.41.85-4.85,3.26-5.46C191.11,2.88,214.18,0,237.19,0c74.55,0,144.64,29.03,197.35,81.74,94.48,94.47,108.68,243.34,33.78,353.99l-174.38,257.56c-.87,1.28-2.28,1.97-3.73,1.97Z"/>
      <path class="cls-5" d="M113.83,38.16c-1.65,0-3.23-.91-4.02-2.48-1.11-2.22-.22-4.92,2-6.03,7.01-3.52,14.29-6.79,21.63-9.72,2.31-.92,4.92.21,5.84,2.51.92,2.31-.21,4.92-2.51,5.84-7.1,2.83-14.14,5.99-20.93,9.4-.65.32-1.34.48-2.01.48Z"/>
    </g>
    <g>
      <g>
        <path class="cls-1" d="M68.37,113.13c-28.47,28.47-48.19,62.79-58.91,99.36,36.61-7.62,76.22,2.76,104.63,31.17,15.07,15.07,25.15,33.47,30.09,53-1.16-5.82-1.78-11.83-1.78-17.99,0-50.32,40.79-91.11,91.11-91.11,46.22,0,84.38,34.43,90.29,79.03-4.22-49.44-25.35-97.41-62.56-134.63h0c-37.03-37.03-84.15-57.83-132.51-62.41-21.76,10.93-42.19,25.41-60.35,43.57h0Z"/>
        <path class="cls-3" d="M324.55,281.16c-1.32,49.17-41.56,88.62-91.05,88.62-42.38,0-78-28.94-88.19-68.14,6.07,29.49.54,61.1-17.35,87.51l-50.71,74.91,85.52,126.32,124.62-184.07c25.76-38.04,37.93-81.81,37.15-125.15Z"/>
      </g>
      <path class="cls-2" d="M114.09,243.66c-28.42-28.42-68.02-38.79-104.63-31.17C-9.61,277.58-.07,349.84,40.12,409.2l37.14,54.86,50.71-74.91c17.88-26.41,23.41-58.02,17.35-87.51-.43-1.64-.8-3.3-1.14-4.98-4.93-19.53-15.02-37.93-30.09-53Z"/>
      <path class="cls-4" d="M398.65,113.13h0C325.6,40.09,216.24,25.61,128.72,69.56c48.36,4.58,95.48,25.38,132.51,62.41h0c37.22,37.22,58.34,85.18,62.56,134.63.52,3.95.82,7.98.82,12.08,0,.83-.04,1.66-.06,2.49.78,43.33-11.39,87.1-37.15,125.15l-124.62,184.07,70.72,104.46,193.39-285.64c62.76-92.7,50.91-216.91-28.25-296.07Z"/>
    </g>
  </g>
  <g>
    <path class="cls-5" d="M713,495.11h-60.66V168.5h238.42v50.85h-177.77v275.75ZM707.86,318.73h162.84v51.32h-162.84v-51.32Z"/>
    <path class="cls-5" d="M1011.14,498.37c-18.66,0-34.99-3.19-48.99-9.56-14-6.37-24.81-15.24-32.43-26.6-7.63-11.35-11.43-24.18-11.43-38.49s3.34-26.6,10.03-37.8c6.68-11.2,17.65-20.06,32.89-26.59,15.24-6.54,35.46-9.8,60.66-9.8h72.32v38.73h-68.12c-19.91,0-33.29,3.19-40.13,9.56-6.85,6.38-10.27,14.23-10.27,23.57,0,10.58,4.2,18.98,12.6,25.19,8.4,6.23,20.06,9.33,34.99,9.33s27.13-3.26,38.49-9.8c11.35-6.53,19.52-16.17,24.49-28.93l9.8,34.99c-5.6,14.63-15.63,25.98-30.09,34.06-14.46,8.09-32.74,12.13-54.82,12.13ZM1089.53,495.11v-50.39l-3.27-10.73v-88.19c0-17.1-5.13-30.4-15.4-39.89-10.27-9.48-25.82-14.24-46.66-14.24-14,0-27.76,2.18-41.29,6.54-13.53,4.36-24.96,10.42-34.3,18.2l-22.86-42.46c13.37-10.26,29.31-17.96,47.82-23.1,18.5-5.13,37.71-7.7,57.62-7.7,36.08,0,64,8.63,83.75,25.9,19.75,17.26,29.63,43.94,29.63,80.02v146.04h-55.06Z"/>
    <path class="cls-5" d="M1219.24,495.11V148.9h58.32v154.9l-4.66,66.25,1.87,66.25v58.79h-55.52ZM1357.34,498.37c-21.15,0-39.97-4.66-56.46-14-16.49-9.33-29.48-23.4-38.96-42.23-9.49-18.81-14.23-42.69-14.23-71.62s4.9-53.19,14.7-71.86c9.8-18.66,23.02-32.58,39.66-41.76,16.64-9.18,35.07-13.77,55.29-13.77,24.57,0,46.27,5.29,65.09,15.87,18.82,10.58,33.75,25.36,44.79,44.32,11.04,18.98,16.56,41.38,16.56,67.19s-5.52,48.22-16.56,67.19c-11.05,18.98-25.97,33.83-44.79,44.56-18.82,10.73-40.52,16.1-65.09,16.1ZM1350.81,448.45c14,0,26.52-3.11,37.56-9.34,11.04-6.22,19.83-15.23,26.36-27.06,6.53-11.82,9.8-25.66,9.8-41.52s-3.26-30.09-9.8-41.76c-6.53-11.66-15.33-20.6-26.36-26.82-11.05-6.22-23.56-9.34-37.56-9.34s-26.6,3.12-37.79,9.34c-11.2,6.23-20.06,15.16-26.6,26.82-6.53,11.67-9.8,25.59-9.8,41.76s3.26,29.71,9.8,41.52c6.53,11.83,15.4,20.84,26.6,27.06,11.2,6.23,23.79,9.34,37.79,9.34Z"/>
    <path class="cls-5" d="M1539.31,495.11v-249.15h55.52v68.59l-6.53-20.06c7.47-16.8,19.2-29.55,35.23-38.26,16.02-8.71,36-13.06,59.95-13.06v55.52c-2.49-.62-4.83-1-7-1.17-2.18-.15-4.36-.23-6.53-.23-22.09,0-39.66,6.46-52.72,19.36-13.06,12.92-19.6,32.12-19.6,57.63v120.84h-58.32Z"/>
    <path class="cls-5" d="M1762.34,204.89c-10.89,0-19.83-3.42-26.83-10.26-7-6.84-10.5-15.09-10.5-24.73s3.5-18.27,10.5-24.96c7-6.68,15.94-10.03,26.83-10.03s19.83,3.19,26.83,9.57c7,6.38,10.5,14.39,10.5,24.03,0,10.26-3.43,18.9-10.26,25.9-6.85,6.99-15.87,10.5-27.06,10.5ZM1732.94,495.11v-249.15h58.32v249.15h-58.32Z"/>
    <path class="cls-5" d="M1982.09,498.37c-26.13,0-49.39-5.52-69.75-16.56-20.38-11.04-36.32-26.21-47.82-45.5-11.51-19.28-17.27-41.21-17.27-65.79s5.75-46.89,17.27-66.02c11.5-19.13,27.45-34.13,47.82-45.03,20.37-10.88,43.63-16.33,69.75-16.33,24.26,0,45.64,4.9,64.16,14.7,18.5,9.79,32.58,24.19,42.23,43.16l-44.79,26.13c-7.47-11.82-16.56-20.53-27.3-26.13-10.73-5.6-22.32-8.4-34.76-8.4-14.31,0-27.22,3.12-38.73,9.34-11.51,6.23-20.53,15.16-27.06,26.82-6.53,11.67-9.8,25.59-9.8,41.76s3.27,30.09,9.8,41.76c6.53,11.66,15.55,20.6,27.06,26.82,11.5,6.23,24.42,9.34,38.73,9.34,12.44,0,24.03-2.8,34.76-8.4,10.73-5.6,19.83-14.3,27.3-26.13l44.79,26.13c-9.65,18.67-23.72,33.06-42.23,43.16-18.51,10.11-39.89,15.16-64.16,15.16Z"/>
    <path class="cls-5" d="M2425.8,499.77c-25.51,0-48.92-4.13-70.22-12.37-21.31-8.24-39.89-19.9-55.76-34.99-15.86-15.08-28.15-32.89-36.86-53.42-8.71-20.53-13.06-42.92-13.06-67.19s4.35-46.66,13.06-67.19c8.71-20.53,21.07-38.33,37.09-53.42,16.02-15.08,34.76-26.75,56.22-34.99,21.46-8.24,44.94-12.36,70.45-12.36,27.68,0,52.64,4.51,74.89,13.53,22.24,9.02,40.98,22.24,56.22,39.66l-38.26,37.33c-12.76-12.75-26.52-22.16-41.29-28.23-14.78-6.07-31.03-9.1-48.76-9.1s-32.98,2.8-47.59,8.4c-14.63,5.6-27.22,13.53-37.79,23.8-10.58,10.26-18.75,22.39-24.5,36.39-5.76,14-8.63,29.4-8.63,46.19s2.87,31.73,8.63,45.73c5.75,14,13.92,26.21,24.5,36.62,10.57,10.43,23.02,18.43,37.33,24.03,14.3,5.6,30.17,8.4,47.59,8.4,16.17,0,31.8-2.57,46.89-7.7,15.08-5.13,29.47-13.77,43.16-25.9l34.53,45.26c-17.11,13.69-36.94,24.03-59.49,31.03-22.55,7-45.34,10.5-68.35,10.5ZM2496.26,450.31v-122.24h57.39v130.17l-57.39-7.93Z"/>
    <path class="cls-5" d="M2633.43,495.11V168.5h134.38c28.93,0,53.73,4.66,74.42,14,20.68,9.33,36.63,22.71,47.82,40.13,11.2,17.42,16.8,38.1,16.8,62.05s-5.6,44.64-16.8,62.06c-11.2,17.42-27.14,30.8-47.82,40.13-20.69,9.33-45.49,14-74.42,14h-100.78l27.06-28.46v122.71h-60.66ZM2694.08,378.92l-27.06-29.39h97.98c26.75,0,46.89-5.67,60.42-17.03,13.53-11.35,20.3-27.29,20.3-47.83s-6.76-36.86-20.3-48.05c-13.53-11.2-33.67-16.8-60.42-16.8h-97.98l27.06-29.86v188.97Z"/>
    <path class="cls-5" d="M3073.42,499.77c-25.51,0-49.93-3.66-73.26-10.97-23.33-7.31-41.84-16.72-55.52-28.23l20.99-47.13c13.06,10.26,29.24,18.82,48.53,25.66,19.28,6.84,39.03,10.26,59.26,10.26,17.1,0,30.95-1.86,41.52-5.6,10.57-3.73,18.35-8.78,23.33-15.16,4.97-6.37,7.47-13.61,7.47-21.7,0-9.95-3.58-17.96-10.74-24.03-7.16-6.07-16.41-10.88-27.76-14.46-11.36-3.57-23.95-6.92-37.8-10.03-13.84-3.1-27.69-6.77-41.53-10.97-13.84-4.2-26.44-9.64-37.79-16.33-11.36-6.69-20.61-15.63-27.76-26.83-7.16-11.2-10.73-25.5-10.73-42.93s4.74-33.98,14.23-48.75c9.48-14.77,23.95-26.6,43.39-35.46,19.44-8.86,44.1-13.3,73.95-13.3,19.6,0,39.03,2.49,58.32,7.47,19.29,4.98,36.08,12.13,50.4,21.46l-19.14,47.13c-14.63-8.71-29.71-15.16-45.26-19.36-15.56-4.2-30.48-6.3-44.79-6.3-16.79,0-30.41,2.03-40.83,6.07-10.42,4.05-18.04,9.34-22.86,15.87-4.83,6.54-7.23,14-7.23,22.39,0,9.96,3.5,17.96,10.5,24.03,7,6.07,16.17,10.82,27.53,14.24,11.36,3.43,24.04,6.76,38.03,10.03,14,3.26,27.91,6.92,41.76,10.96,13.83,4.05,26.44,9.34,37.8,15.87,11.35,6.54,20.53,15.4,27.53,26.6,6.99,11.2,10.49,25.36,10.49,42.46s-4.75,33.52-14.22,48.29c-9.49,14.78-24.04,26.6-43.63,35.46-19.59,8.87-44.32,13.3-74.18,13.3Z"/>
  </g>
</svg>